<svg xmlns="http://www.w3.org/2000/svg" viewBox="0 0 200 200">
	<title>BNF Logotype</title>
	<style type="text/css">
		@media (prefers-color-scheme: dark) {
			.backdrop{fill: #fff;}
			.text{fill: #000;}
	+ }
	</style>
	<path class="backdrop" fill="#000" d="M100,0C44.8,0,0,44.8,0,100c0,55.2,44.8,100,100,100c55.2,0,100-44.8,100-100c0,0,0,0,0,0 C200,44.8,155.2,0,100,0z" />
	<g class="text" fill="#fff">
		<path d="M144.4,123.8c0,0.4-0.1,0.8-0.3,1.2c-0.2,0.4-0.5,0.7-0.9,0.9c-0.4,0.2-0.8,0.3-1.3,0.3
			c-0.4,0-0.9-0.1-1.3-0.3c-0.4-0.2-0.7-0.5-0.9-0.9c-0.2-0.4-0.3-0.8-0.3-1.3c0-0.4,0.1-0.9,0.3-1.3c0.2-0.4,0.5-0.7,0.9-0.9
			c0.4-0.2,0.8-0.3,1.3-0.3c0.4,0,0.9,0.1,1.3,0.3c0.4,0.2,0.7,0.5,0.9,0.9C144.3,123,144.4,123.4,144.4,123.8z M143.9,123.8
			c0-0.3-0.1-0.7-0.3-1s-0.4-0.6-0.7-0.8c-0.3-0.2-0.7-0.3-1-0.3c-0.6,0-1,0.2-1.4,0.6c-0.4,0.4-0.6,0.9-0.6,1.4
			c0,0.6,0.2,1,0.6,1.4c0.4,0.4,0.9,0.6,1.4,0.6c0.4,0,0.7-0.1,1-0.3c0.3-0.2,0.6-0.4,0.7-0.8S143.9,124.2,143.9,123.8z
				M141.4,124.1v0.6h0.2c0.1,0,0.2,0,0.2,0.1c0,0,0.1,0.1,0.1,0.2c0,0.1,0,0.1-0.1,0.2c0,0-0.1,0.1-0.2,0.1h-0.7
			c-0.1,0-0.2,0-0.2-0.1c0,0-0.1-0.1-0.1-0.2c0-0.1,0-0.1,0.1-0.2c0,0,0.1,0,0.3,0v-1.8c-0.2,0-0.2,0-0.3-0.1
			c-0.1,0-0.1-0.1-0.1-0.2c0-0.1,0-0.1,0.1-0.2c0,0,0.1-0.1,0.2-0.1h1c0.3,0,0.6,0.1,0.7,0.2c0.2,0.2,0.3,0.4,0.3,0.6
			c0,0.1,0,0.3-0.1,0.4c-0.1,0.1-0.2,0.2-0.4,0.3c0.2,0.2,0.4,0.4,0.6,0.7c0.1,0,0.2,0,0.3,0.1c0,0,0.1,0.1,0.1,0.2
			c0,0.1,0,0.1-0.1,0.2c0,0-0.1,0.1-0.2,0.1h-0.3c-0.4-0.6-0.7-0.9-0.9-1H141.4z M141.4,123.7h0.3c0.2,0,0.4-0.1,0.6-0.2
			c0.1-0.1,0.1-0.1,0.1-0.2c0-0.1,0-0.2-0.1-0.2c-0.1-0.1-0.2-0.1-0.4-0.1h-0.5V123.7z"/>
		<path d="M69.5,101.6l8.6-4.2v-23l-35-0.6l0.2,52.2h34.8v-20.3L69.5,101.6z M55,87.1l9.9,0.1l-0.1,7L55,95.6V87.1z M66.2,115.8H55.5v-9l10.9,0.8L66.2,115.8z"/>
		<polygon points="136.5,93 157,93.2 157,74 122.8,74 121.7,125.8 135.2,125.8 135.7,109 154.5,107.9 154.6,98.9 136,98.6"/>
		<polygon points="106.3,74.8 105.9,95.3 94.3,80.4 83.7,92.5 82.9,126.3 95.6,126.1 95.4,107.2 101.9,110 106.3,125.9 116.9,125.7 117.6,73.7"/>
		<polygon points="94.3,74.7 83.8,74.2 81.5,84.5 84.2,86.2"/>
	</g>
</svg>
