<?xml version="1.0" encoding="utf-8"?>
<!-- Generator: Adobe Illustrator 26.0.2, SVG Export Plug-In . SVG Version: 6.00 Build 0)  -->
<svg version="1.1" id="Layer_1" xmlns="http://www.w3.org/2000/svg" xmlns:xlink="http://www.w3.org/1999/xlink" x="0px" y="0px"
	 viewBox="0 0 200 200" style="enable-background:new 0 0 200 200;" xml:space="preserve">
<style type="text/css">
	.st0{fill:#FFFFFF;}
</style>
<rect width="200" height="200"/>
<g>
	<path class="st0" d="M27.5,98.8h28.6V82.1l-7-3.3l7-3.5V56.4L27.3,56L27.5,98.8z M46.3,90.5h-8.8v-7.3l9,0.7L46.3,90.5z M37.1,67
		l8.1,0.1l-0.1,5.7l-8.1,1.1V67z"/>
	<path class="st0" d="M140.7,56.5h-29.5v42.3h11.9L122.7,87h1.6l5.9,11.8l9.9,0.2l-4.5-14.7l4.5-4.4L140.7,56.5z M120.8,75.8
		l0.1-7.9l8.3,0.2l0.1,6.9L120.8,75.8z"/>
	<polygon class="st0" points="27.1,144.4 39.2,144 39.6,131.8 54.1,130.9 54.1,123.5 39.9,123.2 40.2,118.1 56,118.3 56,101.7 
		27.5,101.7 	"/>
	<polygon class="st0" points="91.9,130.2 108.3,129.7 108.3,92.7 91.7,92.3 	"/>
	<polygon class="st0" points="121.2,129.1 137,128.8 137,121 124.5,120.8 124.5,115.6 139.7,116 139.7,101.9 111.2,101.5 
		111.2,142.7 139.8,143 139.8,132.9 121.2,133.2 	"/>
	<polygon class="st0" points="69.4,86.2 82.9,85.7 82.9,78.6 70.8,78.4 70.8,72.7 83.3,71.8 83.3,57.6 59,57.1 59,99.1 88.8,98.6 
		88.8,91.9 69.4,92.1 	"/>
	<polygon class="st0" points="86.3,89.4 108.3,89.7 108.3,83.3 95.5,83.4 95.5,78.5 107,78.2 107,72.9 96.8,72.7 96.9,68.4 
		108.3,67.7 108.3,56 86.3,56.5 	"/>
	<path class="st0" d="M58.4,144.3l13.8-0.2l-0.3-12.4h2.5l4.5,12.6h10.1v-10.8l-4.2,0.2l-2.5-4.1l6.8-5v-22.9L58.9,102L58.4,144.3z
		 M69.8,112.7l7.8,0.2v7l-7.9,0.7L69.8,112.7z"/>
	<polygon class="st0" points="92.1,133.4 91.7,143.7 108.3,143.7 107.9,132.8 	"/>
	<polygon class="st0" points="162.7,73.6 153.3,61.5 144.5,71.5 143.8,99.1 154.3,98.9 154.1,83.4 159.4,85.7 163,98.8 171.8,98.6 
		172.3,55.9 163,56.8 	"/>
	<polygon class="st0" points="153.9,55.9 145.2,55.5 143.1,64.9 145.3,66.3 	"/>
	<polygon class="st0" points="154.6,118.2 154.6,110.9 159,110.9 159.4,115.5 171.8,116.9 171.9,101.5 142.6,101.9 142.6,124.6 
		162.1,128 162.3,133.6 153,133.5 151.9,129.7 142.6,128.8 142.6,143.9 172.1,144 171.8,121 	"/>
	<path class="st0" d="M180.3,138.8c-0.2-0.5-0.6-0.8-1.1-1.1c-0.5-0.3-0.9-0.4-1.4-0.4c-0.5,0-1,0.1-1.4,0.4
		c-0.5,0.3-0.8,0.6-1.1,1.1c-0.3,0.5-0.4,0.9-0.4,1.4c0,0.5,0.1,1,0.4,1.4c0.3,0.5,0.6,0.8,1.1,1.1c0.5,0.3,0.9,0.4,1.4,0.4
		s1-0.1,1.4-0.4c0.5-0.3,0.8-0.6,1.1-1.1c0.2-0.5,0.4-0.9,0.4-1.4C180.7,139.7,180.6,139.3,180.3,138.8z M179.8,141.4
		c-0.2,0.4-0.5,0.6-0.9,0.9c-0.4,0.2-0.8,0.3-1.2,0.3c-0.6,0-1.2-0.2-1.6-0.7c-0.5-0.5-0.7-1-0.7-1.6c0-0.6,0.2-1.2,0.7-1.6
		c0.5-0.5,1-0.7,1.6-0.7c0.4,0,0.8,0.1,1.2,0.3c0.4,0.2,0.7,0.5,0.9,0.9c0.2,0.4,0.3,0.7,0.3,1.1C180.1,140.6,180,141,179.8,141.4z"
		/>
	<path class="st0" d="M179.1,141.3c-0.2-0.4-0.5-0.6-0.7-0.8c0.2-0.1,0.3-0.2,0.4-0.3c0.1-0.1,0.1-0.3,0.1-0.4
		c0-0.3-0.1-0.5-0.3-0.7c-0.2-0.2-0.5-0.3-0.8-0.3h-1.2c-0.1,0-0.2,0-0.3,0.1c-0.1,0-0.1,0.1-0.1,0.2c0,0.1,0,0.1,0.1,0.2
		c0,0,0.2,0.1,0.3,0.1v2c-0.2,0-0.3,0-0.3,0.1c-0.1,0.1-0.1,0.1-0.1,0.2c0,0.1,0,0.1,0.1,0.2c0.1,0,0.1,0.1,0.3,0.1h0.8
		c0.1,0,0.2,0,0.3-0.1c0.1,0,0.1-0.1,0.1-0.2c0-0.1,0-0.1-0.1-0.2c-0.1,0-0.1-0.1-0.3-0.1h-0.2v-0.6h0.5c0.3,0.1,0.6,0.5,1,1.2h0.3
		c0.1,0,0.2,0,0.3-0.1c0.1,0,0.1-0.1,0.1-0.2c0-0.1,0-0.1-0.1-0.2C179.3,141.3,179.2,141.3,179.1,141.3z M177.7,140.1h-0.4v-0.9h0.6
		c0.2,0,0.4,0,0.5,0.1c0.1,0.1,0.2,0.2,0.2,0.3c0,0.1-0.1,0.2-0.2,0.3C178.1,140,177.9,140.1,177.7,140.1z"/>
</g>
</svg>
