<svg xmlns="http://www.w3.org/2000/svg" viewBox="0 0 200 200">
  <defs>
    <style>
      .cls-1 {
        fill: #fff;
      }
    </style>
  </defs>
  <g id="Layer_2" data-name="Layer 2">
    <g id="Lager_4" data-name="Lager 4">
      <g>
        <circle cx="100" cy="100" r="100"/>
        <g>
          <g>
            <path class="cls-1" d="M55.37,81.42524l6.16669-3.05317V61.84691l-25.17407-.40278.17068,37.47628H61.53673V84.31066ZM44.95074,71.05916l7.10967.04851-.04636,5.0261-7.06331,1.00361Zm8.05971,20.57072H45.32469V85.19955l7.8578.58237Z"/>
            <path class="cls-1" d="M131.16692,86.1766l3.93834-3.84027.55242-20.445H109.85106V98.92041l10.42313,0-.34776-10.32433h1.3667L126.44,98.92041l8.71.14464Zm-12.96177-7.38123.10531-6.907,7.2552.16733.06192,6.03867Z"/>
            <polygon class="cls-1" points="47.65 115.854 61.5 116.018 61.5 101.475 36.533 101.475 36.177 138.862 46.739 138.544 47.095 127.797 59.766 127.045 59.795 120.531 47.339 120.298 47.65 115.854"/>
            <polygon class="cls-1" points="107.234 126 107.234 93.552 92.766 93.237 92.928 126.42 107.234 126"/>
            <polygon class="cls-1" points="118.608 125.488 132.423 125.194 132.423 118.414 121.487 118.24 121.487 113.612 134.811 114.038 134.811 101.656 109.796 101.283 109.796 137.374 134.823 137.624 134.823 128.799 118.608 129.067 118.608 125.488"/>
            <polygon class="cls-1" points="90.204 98.758 90.204 92.9 73.215 93.07 73.215 87.872 84.999 87.505 85.017 81.24 74.412 81.033 74.47 76.079 85.41 75.331 85.41 62.897 64.099 62.438 64.099 99.218 90.204 98.758"/>
            <polygon class="cls-1" points="107.234 90.971 107.234 85.383 96.044 85.439 96.044 81.195 106.147 80.886 106.147 76.29 97.236 76.116 97.3 72.332 107.234 71.702 107.234 61.444 87.976 61.902 87.976 90.686 107.234 90.971"/>
            <path class="cls-1" d="M86.49121,129.49847l-2.22542-3.633L90.20442,121.49V101.44961l-26.14947.32245-.52475,37.03607,12.04974-.168-.29525-10.84459h2.192l3.917,11.01262h8.81075V129.365Zm-6.081-12.085-6.92935.65509.11974-6.91953,6.80961.1701Z"/>
            <polygon class="cls-1" points="93.071 129.278 92.766 138.264 107.234 138.264 106.902 128.708 93.071 129.278"/>
            <polygon class="cls-1" points="155.196 62.179 154.912 76.899 146.652 66.28 138.967 74.999 138.368 99.218 147.52 99.065 147.395 85.445 152.038 87.472 155.206 98.92 162.855 98.762 163.311 61.373 155.196 62.179"/>
            <polygon class="cls-1" points="147.215 61.373 139.62 61.029 137.717 69.267 139.691 70.471 147.215 61.373"/>
            <polygon class="cls-1" points="147.794 109.517 151.646 109.517 151.985 113.551 162.893 114.745 162.931 101.316 137.32 101.62 137.32 121.511 154.37 124.467 154.605 129.421 146.452 129.337 145.463 126.006 137.316 125.241 137.316 138.395 163.179 138.562 162.893 118.384 147.848 115.958 147.794 109.517"/>
          </g>
          <path class="cls-1" d="M170.67687,135.22923a2.54583,2.54583,0,0,1-.324,1.23986,2.35058,2.35058,0,0,1-.92806.93186,2.5129,2.5129,0,0,1-2.51192.00811,2.373,2.373,0,0,1-.92983-.9278,2.51126,2.51126,0,0,1,0-2.50406,2.38975,2.38975,0,0,1,.9278-.92984,2.51392,2.51392,0,0,1,2.516.00609,2.35041,2.35041,0,0,1,.926.93389A2.557,2.557,0,0,1,170.67687,135.22923Zm-.48621,0a2.05151,2.05151,0,0,0-.25933-.99473,1.89142,1.89142,0,0,0-.74554-.75163,2.035,2.035,0,0,0-1.01678-.27555,2.01988,2.01988,0,1,0,0,4.03976,2.04563,2.04563,0,0,0,1.01678-.27353,1.87546,1.87546,0,0,0,.74554-.75162A2.05545,2.05545,0,0,0,170.19066,135.22923Zm-2.52.32422v.56708h.162a.34009.34009,0,0,1,.23093.06287.21171.21171,0,0,1,.069.164.20735.20735,0,0,1-.069.16021.34016.34016,0,0,1-.23093.06262h-.6847a.34019.34019,0,0,1-.23094-.06262.2119.2119,0,0,1-.069-.16426.2146.2146,0,0,1,.08517-.17416.5091.5091,0,0,1,.28367-.04867v-1.76232a.49985.49985,0,0,1-.28772-.05273.219.219,0,0,1-.08112-.17441.21173.21173,0,0,1,.069-.164.34012.34012,0,0,1,.23094-.06287H168.169a1.06458,1.06458,0,0,1,.73743.237.749.749,0,0,1,.26338.57747.64093.64093,0,0,1-.1237.38278,1.07394,1.07394,0,0,1-.37062.306,3.19614,3.19614,0,0,1,.57925.71309.39549.39549,0,0,1,.25527.06084.21024.21024,0,0,1,.069.166.20738.20738,0,0,1-.069.16021.34019.34019,0,0,1-.23094.06262h-.25527a2.92085,2.92085,0,0,0-.90753-1.01679Zm0-.45h.34831a.93856.93856,0,0,0,.56327-.166.283.283,0,0,0,.13765-.235.3036.3036,0,0,0-.13562-.237.634.634,0,0,0-.399-.10723h-.5146Z"/>
        </g>
      </g>
    </g>
  </g>
</svg>
